{"title":"Cocktail 2012 Hindi WebRip 720p x264 ...Hon3y","uid":7615349,"size":2229977649,"categoryP":"video","categoryS":"hd___movies","magnet":"?xt=urn:btih:47f0e3cc5eeaf7b7e7073e4ebb311b2b723910ac&amp;dn=Cocktail+2012+Hindi+WebRip+720p+x264+...Hon3y&amp;tr=udp%3A%2F%2Ftracker.openbittorrent.com%3A80&amp;tr=udp%3A%2F%2Fopen.demonii.com%3A1337&amp;tr=udp%3A%2F%2Ftracker.coppersurfer.tk%3A6969&amp;tr=udp%3A%2F%2Fexodus.desync.com%3A6969","seeders":1,"leechers":0,"uploader":"honey8ee","files":-1,"time":1347181358,"description":" &lt;a href=&quot;http://www.imdb.com/title/tt2168910&quot; rel=&quot;nofollow&quot; target=&quot;_NEW&quot;&gt;http://www.imdb.com/title/tt2168910&lt;/a&gt;\n &lt;a href=&quot;\nhttp://en.wikipedia.org/wiki/Cocktail_(2012_film)&quot; rel=&quot;nofollow&quot; target=&quot;_NEW&quot;&gt;\nhttp://en.wikipedia.org/wiki/Cocktail_(2012_film)&lt;/a&gt;\n\n\nFormat                                   : Matroska\nFormat version                           : Version 2\nFile size                                : 2.07 GiB\nDuration                                 : 2h 19mn\nOverall bit rate                         : 2 129 Kbps\n\nVideo\nID                                       : 1\nFormat                                   : AVC\nFormat/Info                              : Advanced Video Codec\nFormat profile                           : &lt;a class=&quot;__cf_email__&quot; href=&quot;/cdn-cgi/l/email-protection&quot; data-cfemail=&quot;226a4b454a626e160c13&quot;&gt;[email&amp;#160;protected]&lt;/a&gt;&lt;script cf-hash='f9e31' type=&quot;text/javascript&quot;&gt;\n/* &lt;![CDATA[ */!function(){try{var t=&quot;currentScript&quot;in document?document.currentScript:function(){for(var t=document.getElementsByTagName(&quot;script&quot;),e=t.length;e--;)if(t[e].getAttribute(&quot;cf-hash&quot;))return t[e]}();if(t&amp;&amp;t.previousSibling){var e,r,n,i,c=t.previousSibling,a=c.getAttribute(&quot;data-cfemail&quot;);if(a){for(e=&quot;&quot;,r=parseInt(a.substr(0,2),16),n=2;a.length-n;n+=2)i=parseInt(a.substr(n,2),16)^r,e+=String.fromCharCode(i);e=document.createTextNode(e),c.parentNode.replaceChild(e,c)}}}catch(u){}}();/* ]]&gt; */&lt;/script&gt;\nFormat settings, CABAC                   : Yes\nFormat settings, ReFrames                : 4 frames\nMuxing mode                              : Header stripping\nCodec ID                                 : V_MPEG4/ISO/AVC\nDuration                                 : 2h 19mn\nBit rate                                 : 2 000 Kbps\nWidth                                    : 1 280 pixels\nHeight                                   : 544 pixels\nDisplay aspect ratio                     : 2.35:1\nFrame rate                               : 23.976 fps\nStream size                              : 1.90 GiB (92%)\n\nAudio\nID                                       : 2\nFormat                                   : AC-3\nBit rate mode                            : Constant\nBit rate                                 : 128 Kbps\nChannel(s)                               : 2 channels\nChannel positions                        : Front: L R\nSampling rate                            : 48.0 KHz\nBit depth                                : 16 bits\nStream size                              : 127 MiB (6%)\n &lt;a href=&quot;\nhttp://www.freeimgsharing.com/images/32077546744279446590.png&quot; rel=&quot;nofollow&quot; target=&quot;_NEW&quot;&gt;\nhttp://www.freeimgsharing.com/images/32077546744279446590.png&lt;/a&gt;\n &lt;a href=&quot;\nhttp://www.freeimgsharing.com/images/87026719882470082390.png&quot; rel=&quot;nofollow&quot; target=&quot;_NEW&quot;&gt;\nhttp://www.freeimgsharing.com/images/87026719882470082390.png&lt;/a&gt;\n &lt;a href=&quot;\nhttp://www.freeimgsharing.com/images/28284720085447409371.png&quot; rel=&quot;nofollow&quot; target=&quot;_NEW&quot;&gt;\nhttp://www.freeimgsharing.com/images/28284720085447409371.png&lt;/a&gt;\n &lt;a href=&quot;\nhttp://www.freeimgsharing.com/images/36402772803937474295.png&quot; rel=&quot;nofollow&quot; target=&quot;_NEW&quot;&gt;\nhttp://www.freeimgsharing.com/images/36402772803937474295.png&lt;/a&gt;\n &lt;a href=&quot;\nhttp://www.freeimgsharing.com/images/14053290373456776769.png&quot; rel=&quot;nofollow&quot; target=&quot;_NEW&quot;&gt;\nhttp://www.freeimgsharing.com/images/14053290373456776769.png&lt;/a&gt;\n &lt;a href=&quot;\nhttp://www.freeimgsharing.com/images/94123735910508699647.png&quot; rel=&quot;nofollow&quot; target=&quot;_NEW&quot;&gt;\nhttp://www.freeimgsharing.com/images/94123735910508699647.png&lt;/a&gt;\n &lt;a href=&quot;\nhttp://www.freeimgsharing.com/images/32509240082588315683.png&quot; rel=&quot;nofollow&quot; target=&quot;_NEW&quot;&gt;\nhttp://www.freeimgsharing.com/images/32509240082588315683.png&lt;/a&gt;\n &lt;a href=&quot;\nhttp://www.freeimgsharing.com/images/08978386925768759958.png&quot; rel=&quot;nofollow&quot; target=&quot;_NEW&quot;&gt;\nhttp://www.freeimgsharing.com/images/08978386925768759958.png&lt;/a&gt;\n &lt;a href=&quot;\nhttp://www.freeimgsharing.com/images/76136051486325978917.png&quot; rel=&quot;nofollow&quot; target=&quot;_NEW&quot;&gt;\nhttp://www.freeimgsharing.com/images/76136051486325978917.png&lt;/a&gt;\n &lt;a href=&quot;\nhttp://www.freeimgsharing.com/images/06003152259862782193.png&quot; rel=&quot;nofollow&quot; target=&quot;_NEW&quot;&gt;\nhttp://www.freeimgsharing.com/images/06003152259862782193.png&lt;/a&gt;\n &lt;a href=&quot;\nhttp://www.freeimgsharing.com/images/83681566360345432832.png&quot; rel=&quot;nofollow&quot; target=&quot;_NEW&quot;&gt;\nhttp://www.freeimgsharing.com/images/83681566360345432832.png&lt;/a&gt;\n &lt;a href=&quot;\nhttp://www.freeimgsharing.com/images/92837023573696647384.png&quot; rel=&quot;nofollow&quot; target=&quot;_NEW&quot;&gt;\nhttp://www.freeimgsharing.com/images/92837023573696647384.png&lt;/a&gt;","torrent":{"xt":"urn:btih:47f0e3cc5eeaf7b7e7073e4ebb311b2b723910ac","amp;dn":"Cocktail+2012+Hindi+WebRip+720p+x264+...Hon3y","amp;tr":["udp%3A%2F%2Ftracker.openbittorrent.com%3A80","udp%3A%2F%2Fopen.demonii.com%3A1337","udp%3A%2F%2Ftracker.coppersurfer.tk%3A6969","udp%3A%2F%2Fexodus.desync.com%3A6969"],"infoHash":"47f0e3cc5eeaf7b7e7073e4ebb311b2b723910ac","infoHashBuffer":{"type":"Buffer","data":[71,240,227,204,94,234,247,183,231,7,62,78,187,49,27,43,114,57,16,172]},"announce":[],"urlList":[]}}